<svg xmlns="http://www.w3.org/2000/svg" width="128" height="136.738" viewBox="0 0 128 136.738"><path d="M55.782,3A36.26,36.26,0,0,0,35.555,69.346,51.889,51.889,0,0,0,4,116.921H14.356a41.425,41.425,0,0,1,82.2-7.282l8.577-8.577A52.089,52.089,0,0,0,76.5,69.508,125.19,125.19,0,0,0,92.516,58.99a199.023,199.023,0,0,0,18.771-16.02l3.56-3.722-3.56-3.56A173.865,173.865,0,0,0,92.84,19.506C82.22,11.475,68.971,3,55.782,3Zm0,10.356c8.152,0,20.814,7.059,30.746,14.564A113.077,113.077,0,0,1,99.636,39.248,117.517,117.517,0,0,1,86.367,50.575C76.334,58.1,63.53,65.139,55.782,65.139a25.891,25.891,0,0,1,0-51.782Zm68.774,79.13L92.03,125.012,75.039,108.022,67.6,115.465l20.713,20.713,3.722,3.56,3.722-3.56L132,99.931Z" transform="translate(-4 -3)" fill="red"/></svg>