<svg xmlns="http://www.w3.org/2000/svg" width="135.485" height="135.485" viewBox="0 0 135.485 135.485"><g transform="translate(3.743 3.743)"><path d="M56.942,3v9.808h4.9v5.21A48.374,48.374,0,0,0,35.794,28.745l-3.678-3.678L35.488,21.7l-6.9-6.9L14.8,28.592l6.9,6.9,3.371-3.371,3.678,3.678A48.374,48.374,0,0,0,18.018,61.846h-5.21v-4.9H3V76.558h9.808v-4.9h5.21A48.271,48.271,0,0,0,28.9,97.859l-3.831,3.524L21.7,98.012l-6.9,6.9L28.592,118.7l6.9-6.9-3.371-3.371,3.678-3.831a48.262,48.262,0,0,0,26.052,10.88v5.21h-4.9V130.5H76.558v-9.808h-4.9v-5.21A48.262,48.262,0,0,0,97.706,104.6h.153l3.524,3.831L98.012,111.8l6.9,6.9L118.7,104.908l-6.9-6.9-3.371,3.371L104.6,97.859c.019-.039-.02-.115,0-.153a48.262,48.262,0,0,0,10.88-26.052h5.21v4.9H130.5V56.942h-9.808v4.9h-5.21a48.375,48.375,0,0,0-10.727-26.052l3.678-3.678,3.371,3.371,6.9-6.9L104.908,14.8l-6.9,6.9,3.371,3.371-3.678,3.678A48.374,48.374,0,0,0,71.654,18.018v-5.21h4.9V3ZM66.75,27.519A39.231,39.231,0,1,1,27.519,66.75,39.159,39.159,0,0,1,66.75,27.519ZM54.49,38.093a7.356,7.356,0,1,0,7.356,7.356A7.358,7.358,0,0,0,54.49,38.093Zm24.519,0a7.356,7.356,0,1,0,7.356,7.356A7.358,7.358,0,0,0,79.01,38.093Zm-36.779,21.3a7.356,7.356,0,1,0,7.356,7.356A7.358,7.358,0,0,0,42.231,59.394Zm24.519,0a7.356,7.356,0,1,0,7.356,7.356A7.358,7.358,0,0,0,66.75,59.394Zm24.519,0a7.356,7.356,0,1,0,7.356,7.356A7.358,7.358,0,0,0,91.269,59.394ZM54.49,80.7a7.356,7.356,0,1,0,7.356,7.356A7.358,7.358,0,0,0,54.49,80.7Zm24.519,0a7.356,7.356,0,1,0,7.356,7.356A7.358,7.358,0,0,0,79.01,80.7Z" transform="translate(-3 -3)" fill="#fff"/><line x2="126.5" y2="126.5" transform="translate(0.5 0.5)" fill="none" stroke="#fff" stroke-linecap="round" stroke-width="6"/><line x1="127" y2="127" transform="translate(0.5 0.5)" fill="none" stroke="#fff" stroke-linecap="round" stroke-width="6"/></g></svg>