<svg xmlns="http://www.w3.org/2000/svg" width="128" height="128" viewBox="0 0 128 128"><path d="M57.154,3v9.846h4.923v5.231A48.564,48.564,0,0,0,35.923,28.846l-3.692-3.692,3.385-3.385-6.923-6.923L14.846,28.692l6.923,6.923,3.385-3.385,3.692,3.692A48.564,48.564,0,0,0,18.077,62.077H12.846V57.154H3V76.846h9.846V71.923h5.231A48.461,48.461,0,0,0,29,98.231l-3.846,3.538-3.385-3.385-6.923,6.923,13.846,13.846,6.923-6.923-3.385-3.385L35.923,105a48.451,48.451,0,0,0,26.154,10.923v5.231H57.154V131H76.846v-9.846H71.923v-5.231A48.451,48.451,0,0,0,98.077,105h.154l3.538,3.846-3.385,3.385,6.923,6.923,13.846-13.846-6.923-6.923-3.385,3.385L105,98.231c.019-.039-.02-.116,0-.154a48.451,48.451,0,0,0,10.923-26.154h5.231v4.923H131V57.154h-9.846v4.923h-5.231a48.564,48.564,0,0,0-10.769-26.154l3.692-3.692,3.385,3.385,6.923-6.923L105.308,14.846l-6.923,6.923,3.385,3.385-3.692,3.692A48.564,48.564,0,0,0,71.923,18.077V12.846h4.923V3ZM67,27.615A39.385,39.385,0,1,1,27.615,67,39.313,39.313,0,0,1,67,27.615ZM54.692,38.231a7.385,7.385,0,1,0,7.385,7.385A7.386,7.386,0,0,0,54.692,38.231Zm24.615,0a7.385,7.385,0,1,0,7.385,7.385A7.386,7.386,0,0,0,79.308,38.231ZM42.385,59.615A7.385,7.385,0,1,0,49.769,67,7.387,7.387,0,0,0,42.385,59.615Zm24.615,0A7.385,7.385,0,1,0,74.385,67,7.387,7.387,0,0,0,67,59.615Zm24.615,0A7.385,7.385,0,1,0,99,67,7.387,7.387,0,0,0,91.615,59.615ZM54.692,81a7.385,7.385,0,1,0,7.385,7.385A7.386,7.386,0,0,0,54.692,81Zm24.615,0a7.385,7.385,0,1,0,7.385,7.385A7.386,7.386,0,0,0,79.308,81Z" transform="translate(-3 -3)" fill="#fff"/></svg>