<svg xmlns="http://www.w3.org/2000/svg" width="128" height="142.222" viewBox="0 0 128 142.222"><path d="M67,2C31.98,2,3,28.89,3,62.444A56.935,56.935,0,0,0,10.111,89.43v12.125a14.328,14.328,0,0,0,14.222,14.222h7.111V130a14.328,14.328,0,0,0,14.222,14.222H88.333A14.328,14.328,0,0,0,102.556,130V115.778h7.111a14.328,14.328,0,0,0,14.222-14.222V89.43A56.933,56.933,0,0,0,131,62.444C131,28.89,102.02,2,67,2Zm0,14.222c27.814,0,49.778,20.868,49.778,46.222A43.009,43.009,0,0,1,110.653,84.5l-.986,1.68v15.375H88.333V130H45.667V101.556H24.333V86.181l-.986-1.68a43.01,43.01,0,0,1-6.125-22.056C17.222,37.09,39.186,16.222,67,16.222ZM45.667,66A14.222,14.222,0,1,0,59.889,80.222,14.222,14.222,0,0,0,45.667,66Zm42.667,0a14.222,14.222,0,1,0,14.222,14.222A14.222,14.222,0,0,0,88.333,66ZM67,97.292c-3.556.711-9.25,9.953-9.25,14.93a3.809,3.809,0,0,0,3.556,3.556c2.844,0,4.983-2.839,5.695-4.972.711,2.133,2.139,4.972,5.695,4.972a3.359,3.359,0,0,0,3.556-3.556C76.25,107.244,70.556,98,67,97.292Z" transform="translate(-3 -2)" fill="#fff"/></svg>