<svg xmlns="http://www.w3.org/2000/svg" width="128" height="116.706" viewBox="0 0 128 116.706"><path d="M93.529,8a4.739,4.739,0,0,0-4.706,4.706v32a4.739,4.739,0,0,0,4.706,4.706h16.941a4.739,4.739,0,0,0,4.706-4.706v-32A4.739,4.739,0,0,0,110.471,8ZM24.824,11.765A11.294,11.294,0,1,0,36.118,23.059,11.325,11.325,0,0,0,24.824,11.765Zm68.706,0h16.941a.92.92,0,0,1,.941.941v32a.92.92,0,0,1-.941.941H93.529a.92.92,0,0,1-.941-.941v-32A.92.92,0,0,1,93.529,11.765ZM24.824,15.529a7.529,7.529,0,1,1-7.529,7.529A7.5,7.5,0,0,1,24.824,15.529ZM12.588,34.353A6.615,6.615,0,0,0,6,40.941v83.765H19.176V111.529H120.824v13.176H134V67.294a6.615,6.615,0,0,0-6.588-6.588,6.532,6.532,0,0,0-4.765,2.1,9.243,9.243,0,0,0-7.471-3.985h-66.7L40.235,45.147A1.964,1.964,0,0,0,40,44.831,13.084,13.084,0,0,0,19.176,42.1V40.941A6.615,6.615,0,0,0,12.588,34.353Zm0,3.765a2.8,2.8,0,0,1,2.824,2.824V83.294a1.882,1.882,0,1,0,3.765,0H45.529a1.882,1.882,0,1,0,3.765,0V62.588h65.882a5.62,5.62,0,0,1,5.647,5.647,1.882,1.882,0,0,0,3.765,0v-.941a2.824,2.824,0,0,1,5.647,0v53.647h-5.647V107.765H15.412v13.176H9.765v-80A2.8,2.8,0,0,1,12.588,38.118ZM102,40a1.882,1.882,0,1,0,1.882,1.882A1.886,1.886,0,0,0,102,40ZM28.588,41.882a9.392,9.392,0,0,1,8.36,5.1.768.768,0,0,1,.059.1.5.5,0,0,1,.051.081l8.471,14.059v18.3H35.272L20.86,56.669a.258.258,0,0,0-.037-.059,9.41,9.41,0,0,1,7.765-14.728ZM19.176,61.059,30.824,79.529H19.176ZM122.706,73.882a1.882,1.882,0,1,0,1.882,1.882A1.886,1.886,0,0,0,122.706,73.882Zm0,7.529a1.882,1.882,0,1,0,1.882,1.882A1.886,1.886,0,0,0,122.706,81.412ZM17.294,88.941a1.882,1.882,0,1,0,1.882,1.882A1.886,1.886,0,0,0,17.294,88.941Zm7.529,0a1.882,1.882,0,1,0,1.882,1.882A1.886,1.886,0,0,0,24.824,88.941Zm7.529,0a1.882,1.882,0,1,0,1.882,1.882A1.886,1.886,0,0,0,32.353,88.941Zm7.529,0a1.882,1.882,0,1,0,1.882,1.882A1.886,1.886,0,0,0,39.882,88.941Zm7.529,0a1.882,1.882,0,1,0,1.882,1.882A1.886,1.886,0,0,0,47.412,88.941Zm7.529,0a1.882,1.882,0,1,0,1.882,1.882A1.886,1.886,0,0,0,54.941,88.941Zm7.529,0a1.882,1.882,0,1,0,1.882,1.882A1.886,1.886,0,0,0,62.471,88.941Zm7.529,0a1.882,1.882,0,1,0,1.882,1.882A1.886,1.886,0,0,0,70,88.941Zm7.529,0a1.882,1.882,0,1,0,1.882,1.882A1.886,1.886,0,0,0,77.529,88.941Zm7.529,0a1.882,1.882,0,1,0,1.882,1.882A1.886,1.886,0,0,0,85.059,88.941Zm7.529,0a1.882,1.882,0,1,0,1.882,1.882A1.886,1.886,0,0,0,92.588,88.941Zm7.529,0A1.882,1.882,0,1,0,102,90.824,1.886,1.886,0,0,0,100.118,88.941Zm7.529,0a1.882,1.882,0,1,0,1.882,1.882A1.886,1.886,0,0,0,107.647,88.941Zm7.529,0a1.882,1.882,0,1,0,1.882,1.882A1.886,1.886,0,0,0,115.176,88.941Zm7.529,0a1.882,1.882,0,1,0,1.882,1.882A1.886,1.886,0,0,0,122.706,88.941Z" transform="translate(-6 -8)" fill="#fff"/></svg>