<svg xmlns="http://www.w3.org/2000/svg" width="128" height="145.911" viewBox="0 0 128 145.911"><path d="M94.536,1.25,92,4.956c-2.048,2.95-6.827,10.253-6.827,14.24a9.363,9.363,0,1,0,18.727,0c0-3.987-4.779-11.29-6.827-14.24Zm26.529,7.8-2.536,3.706c-1.963,2.841-8.388,12.46-8.388,17.361a10.924,10.924,0,1,0,21.848,0c0-4.9-6.425-14.52-8.388-17.361ZM46.842,22.317a3.01,3.01,0,0,0-1.853.975c-1,1.073-24.652,26.322-27.992,30.626C13.57,58.332,5.255,76.79,4.316,78.887a3.014,3.014,0,0,0-.293,1.17A91.233,91.233,0,0,0,6.17,102.393C7.962,95,10.607,85.276,12.217,81.618c2.4-5.438,19.629-36.758,19.8-37.063a9.475,9.475,0,0,1,7.022-4.682,7.589,7.589,0,0,1,1.17-.1,9.5,9.5,0,0,1,6.73,2.828l2.243,2.243c.061.061.049.134.1.2,3.621-5.45,6.145-11.753,2.243-18.434l-1.561-2.731a3.155,3.155,0,0,0-2.341-1.561A4.172,4.172,0,0,0,46.842,22.317Zm54.717,19.214a14.333,14.333,0,0,0-1.658.292L54.059,52.846a24.31,24.31,0,0,1-.1,13.947l43.793-22.53a12.355,12.355,0,0,1,5.657-1.365,11.65,11.65,0,0,1,6.535,2.048A9.834,9.834,0,0,0,101.558,41.532ZM39.819,46.018a3.143,3.143,0,0,0-2.341,1.561c-.707,1.28-17.41,31.589-19.6,36.575-2.255,5.108-7.205,26.029-7.608,28.285-.012.134.012.268,0,.39-1.317,24.518,17.117,32.686,17.849,33.064a3.019,3.019,0,0,0,.78.292,72.978,72.978,0,0,0,12.192.975c8.546,0,16-1.426,22.14-4.292.963-.451,9.753-4.962,18.239-9.266l41.062-20.775a5.833,5.833,0,0,0,2.633-7.9,6,6,0,0,0-8-2.731l-16.483,8.388L92.1,114.878a3,3,0,0,1-1.365.292,3.2,3.2,0,0,1-2.829-1.756,3.125,3.125,0,0,1,1.365-4.194l37.161-18.629a5.914,5.914,0,0,0-5.072-10.534L85.953,97.809a3.034,3.034,0,0,1-1.365.293,3.2,3.2,0,0,1-2.828-1.756,3.125,3.125,0,0,1,1.365-4.194l39.6-19.8a5.9,5.9,0,0,0,2.438-7.8,5.965,5.965,0,0,0-8-2.634l-31.8,16-9.656,4.974a2.851,2.851,0,0,1-1.365.292,3.232,3.232,0,0,1-2.829-1.756,3.118,3.118,0,0,1,1.365-4.194l9.851-4.974-.1-.1,24.189-12.192a5.954,5.954,0,1,0-5.364-10.631L42.355,79.18l3.9-9.363c1.792-4.365,5.486-13.472-1.561-20.677L42.452,46.9A3.1,3.1,0,0,0,39.819,46.018Z" transform="translate(-3.989 -1.25)" fill="#fff"/></svg>