<svg xmlns="http://www.w3.org/2000/svg" width="128" height="118.195" viewBox="0 0 128 118.195"><path d="M107.29,3A13.905,13.905,0,1,0,121.2,16.905,13.905,13.905,0,0,0,107.29,3ZM51.737,9.1,20.748,24.591,26.968,37.03,51.6,24.714,65.94,32.2,50.107,47.3a17.355,17.355,0,0,0-4.454,18.183L3,111.364l9.831,9.832L56.91,77.117l13.77,8.555L46.78,109.3l9.777,9.885L89.609,86.513,72.8,65.316,86.215,52.782,97.146,74.645,131,59.449l-5.7-12.7L103.61,56.5,89.867,29.018Z" transform="translate(-3 -3)" fill="#fff"/></svg>