<svg width="58" height="43" viewBox="0 0 58 43" fill="none" xmlns="http://www.w3.org/2000/svg">
<path fill-rule="evenodd" clip-rule="evenodd" d="M52.4026 21.6572C54.5082 15.6019 49.5817 9.43886 43.2146 10.0705C41.1494 4.20814 35.558 0 28.9642 0C20.62 0 13.8525 6.73202 13.8525 15.038C6.20086 15.038 0 21.2462 0 28.8605C0 36.4747 6.20086 42.6829 13.8525 42.6829H46.5946C52.8559 42.6829 57.9285 37.595 57.9285 31.3668C57.9285 27.2514 55.707 23.6272 52.4026 21.6572Z" fill="white"/>
<path d="M20.0247 21.1607C18.7241 21.1607 17.73 21.6466 17.0423 22.6183C16.3547 23.59 16.0108 24.9204 16.0108 26.6097C16.0108 28.3139 16.3248 29.6369 16.9526 30.5788C17.5955 31.5056 18.6195 31.969 20.0247 31.969C20.6825 31.969 21.3328 31.8943 21.9756 31.7448C22.6334 31.5953 23.3434 31.386 24.1059 31.1169V33.9648C23.4032 34.2488 22.7081 34.4581 22.0204 34.5926C21.3328 34.7272 20.5629 34.7944 19.7108 34.7944C18.0664 34.7944 16.706 34.4581 15.6296 33.7854C14.5682 33.0977 13.7834 32.1409 13.2751 30.9151C12.7668 29.6743 12.5127 28.2317 12.5127 26.5873C12.5127 24.9728 12.8042 23.5451 13.3872 22.3043C13.9703 21.0635 14.8149 20.0918 15.9211 19.3892C17.0423 18.6866 18.4102 18.3353 20.0247 18.3353C20.817 18.3353 21.6093 18.4399 22.4016 18.6492C23.2089 18.8436 23.9788 19.1127 24.7113 19.4565L23.6125 22.2146C23.0146 21.9306 22.4091 21.6839 21.7962 21.4746C21.1982 21.2653 20.6077 21.1607 20.0247 21.1607Z" fill="url(#paint0_linear)"/>
<path d="M41.6007 26.5424C41.6007 28.2018 41.3242 29.6519 40.771 30.8927C40.2329 32.1185 39.4032 33.0753 38.282 33.7629C37.1608 34.4506 35.7257 34.7944 33.9766 34.7944C32.2425 34.7944 30.8073 34.4506 29.6712 33.7629C28.55 33.0753 27.7128 32.1111 27.1597 30.8703C26.6215 29.6295 26.3525 28.1794 26.3525 26.52C26.3525 24.8606 26.6215 23.418 27.1597 22.1922C27.7128 20.9664 28.55 20.0171 29.6712 19.3444C30.8073 18.6567 32.2499 18.3129 33.999 18.3129C35.7331 18.3129 37.1608 18.6567 38.282 19.3444C39.4032 20.0171 40.2329 20.9738 40.771 22.2146C41.3242 23.4405 41.6007 24.8831 41.6007 26.5424ZM29.9179 26.5424C29.9179 28.2168 30.2393 29.5398 30.8821 30.5115C31.5249 31.4682 32.5564 31.9466 33.9766 31.9466C35.4267 31.9466 36.4656 31.4682 37.0935 30.5115C37.7214 29.5398 38.0353 28.2168 38.0353 26.5424C38.0353 24.8532 37.7214 23.5302 37.0935 22.5734C36.4656 21.6167 35.4341 21.1383 33.999 21.1383C32.5639 21.1383 31.5249 21.6167 30.8821 22.5734C30.2393 23.5302 29.9179 24.8532 29.9179 26.5424Z" fill="url(#paint1_linear)"/>
<path d="M50.5904 37.4853H43.5045V35.6466L45.9487 33.2472C46.6214 32.5894 47.0774 32.0886 47.3165 31.7448C47.5707 31.386 47.6978 31.0123 47.6978 30.6236C47.6978 30.3545 47.6081 30.1452 47.4287 29.9957C47.2642 29.8462 47.0325 29.7715 46.7335 29.7715C46.1505 29.7715 45.4927 30.0929 44.7602 30.7357L43.4148 29.0763C43.8932 28.6578 44.4239 28.3214 45.0069 28.0673C45.6049 27.7982 46.3 27.6636 47.0923 27.6636C48.064 27.6636 48.8414 27.9028 49.4244 28.3812C50.0224 28.8446 50.3214 29.5174 50.3214 30.3994C50.3214 31.0721 50.1345 31.685 49.7608 32.2381C49.387 32.7912 48.7592 33.464 47.8771 34.2563L46.7335 35.2878H50.5904V37.4853Z" fill="url(#paint2_linear)"/>
<defs>
<linearGradient id="paint0_linear" x1="50.5904" y1="63.862" x2="5.37527" y2="27.0888" gradientUnits="userSpaceOnUse">
<stop stop-color="#9F69B2"/>
<stop offset="1" stop-color="#F2B789"/>
</linearGradient>
<linearGradient id="paint1_linear" x1="50.5904" y1="63.862" x2="5.37527" y2="27.0888" gradientUnits="userSpaceOnUse">
<stop stop-color="#9F69B2"/>
<stop offset="1" stop-color="#F2B789"/>
</linearGradient>
<linearGradient id="paint2_linear" x1="50.5904" y1="63.862" x2="5.37527" y2="27.0888" gradientUnits="userSpaceOnUse">
<stop stop-color="#9F69B2"/>
<stop offset="1" stop-color="#F2B789"/>
</linearGradient>
</defs>
</svg>
