<svg width="37" height="52" viewBox="0 0 37 52" fill="none" xmlns="http://www.w3.org/2000/svg">
<path fill-rule="evenodd" clip-rule="evenodd" d="M8.95806 32.4846C9.85577 32.4846 10.5844 33.2132 10.5844 34.1109C10.5844 37.3993 13.258 40.0729 16.5464 40.0729C17.4441 40.0729 18.1726 40.8015 18.1726 41.6992C18.1726 42.5969 17.4441 43.3255 16.5464 43.3255C11.4658 43.3255 7.33176 39.1882 7.33176 34.1109C7.33176 33.2132 8.06034 32.4846 8.95806 32.4846ZM18.7159 52C28.581 52 36.6052 43.9759 36.6052 34.1107C36.6052 24.7335 20.7293 1.64012 20.056 0.661089C19.4445 -0.220363 17.9873 -0.220363 17.3758 0.661089C16.7026 1.64012 0.82666 24.7335 0.82666 34.1107C0.82666 43.9759 8.8508 52 18.7159 52Z" fill="white"/>
</svg>
