<svg width="55" height="55" viewBox="0 0 55 55" fill="none" xmlns="http://www.w3.org/2000/svg">
<path fill-rule="evenodd" clip-rule="evenodd" d="M9.15602 32.048H1.1445C0.512737 32.048 0 32.5608 0 33.1925V51.5046C0 52.1364 0.512737 52.6491 1.1445 52.6491H9.15602C9.7855 52.6491 10.3005 52.1364 10.3005 51.5046V33.1925C10.3005 32.5608 9.7855 32.048 9.15602 32.048Z" fill="white"/>
<path fill-rule="evenodd" clip-rule="evenodd" d="M54.6008 41.5394C51.9112 38.8521 49.597 38.1082 46.5618 38.9734L39.6764 41.2579C39.7383 41.6172 39.7703 41.9812 39.7703 42.3497C39.7703 43.8147 39.2965 45.1927 38.4335 46.2296C37.4286 47.4336 36.0117 48.0722 34.3339 48.0722H21.7444C21.1126 48.0722 20.5999 47.5595 20.5999 46.9277C20.5999 46.2937 21.1126 45.7832 21.7444 45.7832H34.3339C35.3228 45.7832 36.1102 45.4376 36.6733 44.7623C37.1883 44.1466 37.4813 43.2676 37.4813 42.3497C37.4813 41.0725 36.8175 38.9162 34.3339 38.9162H27.9316H27.4669C27.1647 38.9162 26.874 38.7949 26.6589 38.5797C25.3816 37.3025 21.9046 34.3382 17.1664 34.3382H12.5884C11.9566 34.3382 11.4438 34.8486 11.4438 35.4827V48.0722C11.4438 48.5621 11.7597 49.0016 12.2267 49.1549C15.8525 50.3635 18.7069 51.4027 21.0004 52.2336C25.5876 53.9 28.165 54.8042 30.4792 54.8042C33.2535 54.8042 35.6478 53.5063 40.6722 50.6657C43.8035 48.8986 48.0908 46.4768 54.3032 43.3729C54.6328 43.2081 54.8617 42.8945 54.9212 42.5328C54.9785 42.1666 54.8594 41.7981 54.6008 41.5394Z" fill="white"/>
<path fill-rule="evenodd" clip-rule="evenodd" d="M15.7572 8.50232C16.1967 8.06055 16.8147 7.99645 17.522 8.63509C21.244 12.0251 24.3616 15.9507 26.923 20.3891C26.9276 20.3868 26.9299 20.3846 26.9344 20.3823C29.1319 24.198 30.1482 26.9334 31.1531 29.6917C33.5039 25.5692 36.404 21.5451 40.6891 19.4049C41.2224 19.1416 41.8679 19.3568 42.1678 19.8421C42.621 20.6226 42.2341 20.9499 41.7145 21.4512C36.697 23.96 32.9614 30.5226 31.9748 33.4182C31.6086 34.3818 30.21 34.4413 29.8346 33.393C29.0243 31.104 28.5779 28.1191 25.22 22.1013L25.2268 22.0899C23.0843 18.2581 20.0422 13.973 15.7984 10.1527C15.3772 9.77272 15.2788 8.98302 15.7572 8.50232ZM19.811 25.7528C21.6193 25.7528 23.1895 24.8761 24.5011 23.1593C27.6028 28.8681 28.6488 33.4301 28.6649 33.5057C28.8731 34.4647 29.6812 35.2545 30.9012 35.3071C31.8489 35.3071 32.7095 34.7097 33.0437 33.8215C33.117 33.6293 34.1333 31.0106 36.0629 28.2226C37.3493 29.6784 38.7823 30.0561 39.9245 30.0561C41.7419 30.0561 43.7288 29.0581 45.3746 27.323C48.1237 24.4275 49.7031 16.6013 47.5629 11.9386C47.4164 11.6228 47.1371 11.3916 46.8029 11.3069C46.471 11.2222 46.1117 11.2954 45.8324 11.5014C43.8272 13.0168 41.9731 13.4952 40.0115 14.001C38.3199 14.4405 36.5711 14.8915 34.8452 16.0428C32.856 17.3682 31.7138 19.1948 31.7092 21.0466C31.7069 21.9691 31.9908 23.212 33.133 24.4915C32.4738 25.3499 31.8878 26.206 31.3842 27.0209C30.5395 24.8578 29.4042 22.3788 27.9049 19.7808C29.6011 18.6157 30.6494 17.2331 31.0157 15.6491C31.5444 13.367 30.6609 10.8514 28.3879 8.1778C26.2637 5.67592 23.4207 4.81983 20.4084 3.91338C17.7738 3.1191 15.0498 2.30192 12.651 0.271575C12.3854 0.0472528 12.0329 -0.0465965 11.6942 0.0220737C11.3531 0.0884549 11.0624 0.303621 10.8999 0.610348C7.74562 6.5755 9.2289 17.4391 12.6807 21.509C14.3242 23.4432 16.8948 25.7528 19.811 25.7528Z" fill="white"/>
</svg>
